# xmcd CD database file
#
# Track frame offsets:
#	150
#	64070
#	125834
#	176661
#
# Disc length: 3132 seconds
#
# Revision: 0
# Processed by: cddbd v1.5.2PL0 Copyright (c) Steve Scherf et al.
# Submitted via: CDex 1.51
#
DISCID=370c3a04
DTITLE=Victor Castillo - Tierra
DYEAR=1900
DGENRE=New Age
TTITLE0=Tierra de paz
TTITLE1=Tierra del hombre
TTITLE2=Tierra de libertad
TTITLE3=Tierra del mañana
EXTD=
EXTT0=
EXTT1=
EXTT2=
EXTT3=
PLAYORDER=
